<svg xmlns="http://www.w3.org/2000/svg" viewBox="0 0 24 24">
    <style>
    @media (prefers-color-scheme: dark) {
      .theme-aware-path {
        fill: #ffffff;
      }
    }
    @media (prefers-color-scheme: light) {
      .theme-aware-path {
        fill: #000000;
      }
    }
    </style>
    <g class="theme-aware-path">
        <path d="M21.5 1h-19A2.503 2.503 0 0 0 0 3.5V23h24V3.5C24 2.122 22.878 1 21.5 1m-19 1h19c.827 0 1.5.673 1.5 1.5V8H1V3.5C1 2.673 1.673 2 2.5 2M1 22V9h22v13zM3 5a1 1 0 1 1 2 0 1 1 0 0 1-2 0m3 0a1 1 0 1 1 2 0 1 1 0 0 1-2 0m3 0a1 1 0 1 1 2 0 1 1 0 0 1-2 0m8.354 6.757-1.555 1.555 1.555 1.555-.707.707-1.555-1.555-1.555 1.555-.707-.707 1.555-1.555-1.555-1.555.707-.707 1.555 1.555 1.555-1.555zm-8.458 2.262-1.555 1.555-.707-.707 1.555-1.555-1.555-1.555.707-.707 1.555 1.555 1.555-1.555.707.707-1.555 1.555 1.555 1.555-.707.707zm7.374 5.249-.504.863c-2.573-1.502-4.959-1.502-7.532 0l-.504-.863c2.883-1.684 5.657-1.684 8.54 0"/>
    </g>
</svg>