<svg xmlns="http://www.w3.org/2000/svg" xmlns:xlink="http://www.w3.org/1999/xlink" width="500" zoomAndPan="magnify" viewBox="0 0 375 374.999991" height="500" preserveAspectRatio="xMidYMid meet" version="1.0">
  <defs>
    <g/>
  </defs>
  <g fill="#ffffff" fill-opacity="1">
    <g transform="translate(8.23842, 249.939693)">
      <g>
        <path d="M 13.171875 0 L 13.171875 -142.484375 L 52.28125 -142.484375 L 52.28125 0 Z M 13.171875 0 "/>
      </g>
    </g>
  </g>
  <g fill="#ffffff" fill-opacity="1">
    <g transform="translate(62.481096, 249.939693)">
      <g>
        <path d="M 13.171875 -115.953125 L 13.171875 -142.484375 L 52.28125 -142.484375 L 52.28125 -115.953125 Z M 13.171875 0 L 13.171875 -103.765625 L 52.28125 -103.765625 L 52.28125 0 Z M 13.171875 0 "/>
      </g>
    </g>
  </g>
  <g fill="#ffffff" fill-opacity="1">
    <g transform="translate(116.723773, 249.939693)">
      <g>
        <path d="M 13.171875 0 L 13.171875 -142.484375 L 52.28125 -142.484375 L 52.28125 0 Z M 13.171875 0 "/>
      </g>
    </g>
  </g>
  <g fill="#ffffff" fill-opacity="1">
    <g transform="translate(170.966449, 249.939693)">
      <g>
        <path d="M 13.171875 -115.953125 L 13.171875 -142.484375 L 52.28125 -142.484375 L 52.28125 -115.953125 Z M 13.171875 0 L 13.171875 -103.765625 L 52.28125 -103.765625 L 52.28125 0 Z M 13.171875 0 "/>
      </g>
    </g>
  </g>
  <g fill="#ffffff" fill-opacity="1">
    <g transform="translate(225.209126, 249.939693)">
      <g>
        <path d="M 80.96875 -103.765625 L 80.96875 -77.234375 L 58.953125 -77.234375 L 58.953125 -37.734375 C 58.953125 -33.015625 59.738281 -29.570312 61.3125 -27.40625 C 62.882812 -25.25 65.769531 -24.171875 69.96875 -24.171875 L 80.96875 -24.171875 L 80.96875 -1.171875 C 77.820312 -0.128906 73.757812 0.71875 68.78125 1.375 C 63.800781 2.03125 59.476562 2.359375 55.8125 2.359375 C 44.28125 2.359375 35.398438 0.265625 29.171875 -3.921875 C 22.953125 -8.117188 19.84375 -15.265625 19.84375 -25.359375 L 19.84375 -77.234375 L 5.3125 -77.234375 L 5.3125 -103.765625 L 21.421875 -103.765625 L 29.875 -135.21875 L 58.953125 -135.21875 L 58.953125 -103.765625 Z M 80.96875 -103.765625 "/>
      </g>
    </g>
  </g>
  <g fill="#ffffff" fill-opacity="1">
    <g transform="translate(301.266784, 249.939693)">
      <g>
        <path d="M 11.984375 0 L 11.984375 -39.109375 L 53.65625 -39.109375 L 53.65625 0 Z M 11.984375 0 "/>
      </g>
    </g>
  </g>
</svg>
